<svg xmlns="http://www.w3.org/2000/svg" viewBox="0 0 408.08 414.37"><g id="Layer_2" data-name="Layer 2"><g id="Layer_2-2" data-name="Layer 2"><path d="M385.38,45.31C361.33,10.13,318.89-7.36,275.66,2.92c-31.88,7.57-56.78,28.57-71.61,55.18C189.21,31.49,164.3,10.49,132.42,2.92,89.19-7.36,46.75,10.13,22.69,45.31-.68,79.49-5.53,122.47,6,161.34c13.92,47,46.39,86.52,80.63,121.84,40.07,41.33,84.87,80.1,111.92,131l.91,0c1.52,0,3,0,4.56.08s3.16.08,4.73.13h.66c27-51,71.92-89.8,112.06-131.19,34.24-35.32,66.7-74.82,80.63-121.84C413.6,122.47,408.76,79.49,385.38,45.31Zm-7.74,147.81C335.25,273.84,249.46,323.6,204,402.26,158.61,323.6,72.83,273.84,30.43,193.12,10.92,156,3.73,114.27,19.16,74.59,32.82,39.46,64.23,10.38,105.32,10c42-.4,75.55,24.75,92.15,58.77.59,0,1.19,0,1.78,0l1.93.07h.39c2.42.11,4.84.26,7.26.38l1.51.06C226.83,35,260.52,9.59,302.76,10c41.09.39,72.49,29.47,86.15,64.6C404.35,114.27,397.16,156,377.64,193.12Z" transform="translate(0)"/></g></g></svg>