<svg xmlns="http://www.w3.org/2000/svg" viewBox="0 0 563.13 597.52"><defs><style>.cls-1{fill:none;stroke:#000;stroke-miterlimit:10;stroke-width:8px;}</style></defs><g id="Layer_2" data-name="Layer 2"><g id="Layer_3" data-name="Layer 3"><path class="cls-1" d="M96.16,377.52c-34.47-142.35,94.06-216,210.1-216s228.5,84.75,198.2,205.59c-29.22,116.52-82.17,226.41-198.2,226.41S124.42,494.22,96.16,377.52Z"/><path d="M276.17,313.63c-40.53-21-93.3-12.81-125,20.39-3.53,3.69,1.65,9.8,5.2,6.07,29-30.42,77.74-39.25,115.28-19.83C276.22,322.6,280.74,316,276.17,313.63Z"/><path d="M323.32,308.46c35.44-25.52,85.93-23.56,119.7,5.7,3.76,3.26-.34,9.92-4.13,6.64-30.95-26.82-77.74-29.92-110.56-6.28C324.38,317.37,319.33,311.34,323.32,308.46Z"/><path d="M297.26,437c-20.51-5.07-23-29.51-18.92-46.7,5.06-21.09,16.08-40.48,14.11-62.79-.45-5.13-8.3-3.56-7.85,1.52,2.22,25.24-14.34,47.42-16.05,72.22-1.24,17.92,7.19,38.64,26.16,43.33C299.67,445.76,302.28,438.18,297.26,437Z"/><path d="M284.51,83.23q-4.32-40-8.66-80.08C275.3-2,267.45-.41,268,4.68q4.33,40,8.66,80.08C277.21,89.88,285.06,88.32,284.51,83.23Z"/><path d="M379,51.46l-16.23,30.3c-2.41,4.49,4.19,9,6.63,4.47l16.23-30.3C388,51.44,381.42,46.92,379,51.46Z"/><path d="M556.69,56.68,473.37,140c-3.62,3.62,1.57,9.72,5.21,6.08L561.9,62.75C565.52,59.13,560.34,53,556.69,56.68Z"/><path d="M549.38,175.61l-30.3,13c-4.75,2-1.26,9.23,3.47,7.21l30.3-13C557.59,180.79,554.1,173.59,549.38,175.61Z"/><path d="M165.16,115.8q-6-12.43-11.9-24.88c-2.23-4.66-9.44-1.18-7.21,3.46Q152,106.83,158,119.27C160.17,123.93,167.38,120.45,165.16,115.8Z"/><path d="M79.11,182,22.84,130.08c-3.75-3.45-9.86,1.72-6.08,5.21L73,187.23C76.77,190.69,82.88,185.51,79.11,182Z"/><path d="M38,236.79,5.27,229.94c-5-1-7.59,6.53-2.55,7.58l32.73,6.85C40.42,245.42,43,237.85,38,236.79Z"/></g></g></svg>