<svg xmlns="http://www.w3.org/2000/svg" viewBox="0 0 594.98 597.5"><defs><style>.cls-1{fill:none;stroke:#000;stroke-linecap:round;stroke-linejoin:round;stroke-width:8px;}</style></defs><g id="Layer_2" data-name="Layer 2"><g id="Layer_5" data-name="Layer 5"><path class="cls-1" d="M221,5.69,305.36,4s-4.42,77.38,14.34,96.14,30.91,26.55,77.16,1.69S561.5,104.9,584.51,223.69s-17,221-94.88,286.32-133.19,63.59-170.35,50.6-102.73-44.05-123.13-57.34-68.52-54.7-94-19S78.92,590.13,78.92,590.13L4.71,593.5s-15.8-189.79,102-199c15-1.17,35.31,2.69,99.79,22.24s132-73.26,132-127.66S279.7,194.39,261,175.73s-39.39-33.89-39.39-92.07S221,5.69,221,5.69Z"/><path d="M522.94,397.35c-18.46,50.41-57.72,92.11-106.27,114.75a197,197,0,0,1-43.28,14.34c-5.05,1-3.53,8.9,1.52,7.85C429.51,523,478.45,489,509.08,442.5a206.43,206.43,0,0,0,21.44-42.6C532.29,395.07,524.71,392.51,522.94,397.35Z"/><path d="M500.65,401.38c-20.23,48-62.12,86-111.93,101.32-4.88,1.51-3.4,9.37,1.52,7.86a189.33,189.33,0,0,0,118-106.63C510.23,399.19,502.64,396.65,500.65,401.38Z"/><path d="M299.91,1.81C284,25.1,248.6,30,226.67,12.48c-4-3.22-8.47,3.43-4.47,6.63,25.33,20.26,66.11,13.82,84.34-12.83C309.45,2,302.82-2.44,299.91,1.81Z"/><path d="M80.8,582.21c-18.35-22.46-56.54-21.15-73.61,2.12-3.05,4.16,3.59,8.62,6.63,4.48,14.08-19.2,45.94-19.72,60.91-1.4C78,591.41,84.06,586.19,80.8,582.21Z"/></g></g></svg>